<svg width="259.938" height="30.5" viewBox="0 0 259.938 30.5" xmlns="http://www.w3.org/2000/svg"><g id="svgGroup" stroke-linecap="round" fill-rule="evenodd" font-size="9pt" stroke="#efefef" stroke-width="0.25mm" fill="#efefef" style="stroke:#efefef;stroke-width:0.25mm;fill:#efefef"><path d="M 153.922 13.688 L 153.922 21.563 Q 153.063 22.75 150.906 23.531 A 13.103 13.103 0 0 1 147.658 24.244 A 16.018 16.018 0 0 1 146.156 24.312 A 8.856 8.856 0 0 1 143.309 23.866 A 7.968 7.968 0 0 1 141.641 23.078 A 8.277 8.277 0 0 1 138.756 20.007 A 9.985 9.985 0 0 1 138.539 19.594 A 10.982 10.982 0 0 1 137.494 16.053 A 13.638 13.638 0 0 1 137.391 14.5 L 137.391 10.594 A 12.452 12.452 0 0 1 137.713 7.708 A 10.311 10.311 0 0 1 138.469 5.578 A 8.466 8.466 0 0 1 140.158 3.198 A 7.766 7.766 0 0 1 141.5 2.148 A 8.126 8.126 0 0 1 145.72 0.939 A 9.711 9.711 0 0 1 145.891 0.937 A 10.829 10.829 0 0 1 148.302 1.192 A 7.496 7.496 0 0 1 151.414 2.672 A 6.671 6.671 0 0 1 153.777 6.676 A 8.908 8.908 0 0 1 153.891 7.406 L 153.047 7.406 A 7.729 7.729 0 0 0 152.5 5.475 A 5.745 5.745 0 0 0 150.781 3.234 A 6.432 6.432 0 0 0 148.405 2.08 Q 147.484 1.837 146.4 1.792 A 12.153 12.153 0 0 0 145.891 1.781 A 7.796 7.796 0 0 0 143.182 2.234 A 6.801 6.801 0 0 0 140.344 4.234 Q 138.234 6.688 138.234 10.688 L 138.234 14.313 A 12.303 12.303 0 0 0 138.506 16.951 A 9.897 9.897 0 0 0 139.227 19.078 A 8.04 8.04 0 0 0 140.691 21.231 A 7.224 7.224 0 0 0 142.023 22.32 A 7.386 7.386 0 0 0 145.582 23.451 A 9.062 9.062 0 0 0 146.156 23.469 A 13.64 13.64 0 0 0 149.009 23.179 A 11.84 11.84 0 0 0 150.391 22.797 Q 152.344 22.125 153.078 21.172 L 153.078 14.547 L 146.125 14.547 L 146.125 13.688 L 153.922 13.688 Z M 113.125 0 L 113.125 11.031 A 7.478 7.478 0 0 1 114.404 8.962 A 6.732 6.732 0 0 1 115.562 7.922 Q 117.172 6.781 119.125 6.781 A 7.605 7.605 0 0 1 120.67 6.928 Q 121.584 7.118 122.275 7.553 A 3.92 3.92 0 0 1 123.164 8.32 A 4.856 4.856 0 0 1 124.046 9.898 Q 124.296 10.614 124.409 11.496 A 12.154 12.154 0 0 1 124.5 12.969 L 124.5 24 L 123.656 24 L 123.656 12.938 A 10.904 10.904 0 0 0 123.562 11.52 Q 123.337 9.881 122.574 8.947 A 3.355 3.355 0 0 0 122.547 8.914 A 3.382 3.382 0 0 0 120.995 7.887 Q 120.173 7.609 119.078 7.609 A 5.258 5.258 0 0 0 115.289 9.164 A 7.547 7.547 0 0 0 113.433 12.106 A 9.61 9.61 0 0 0 113.125 13.172 L 113.125 24 L 112.281 24 L 112.281 0 L 113.125 0 Z M 47.953 11.609 L 47.094 11.609 A 3.42 3.42 0 0 0 45.954 9.022 A 4.719 4.719 0 0 0 45.656 8.766 A 5.072 5.072 0 0 0 43.648 7.815 Q 42.906 7.638 42.038 7.626 A 9.226 9.226 0 0 0 41.906 7.625 A 8.228 8.228 0 0 0 40.494 7.739 Q 39.722 7.874 39.102 8.168 A 4.169 4.169 0 0 0 38.391 8.594 A 3.589 3.589 0 0 0 37.626 9.353 A 2.757 2.757 0 0 0 37.094 11.016 A 4.348 4.348 0 0 0 37.146 11.711 Q 37.253 12.369 37.578 12.805 A 2.877 2.877 0 0 0 38.05 13.292 Q 38.297 13.498 38.616 13.689 A 6.631 6.631 0 0 0 39.156 13.977 Q 40.25 14.5 42.344 14.984 Q 44.438 15.469 45.656 16.125 A 5.955 5.955 0 0 1 46.476 16.651 Q 46.91 16.987 47.209 17.371 A 3.295 3.295 0 0 1 47.422 17.68 A 3.641 3.641 0 0 1 47.875 18.869 A 5.124 5.124 0 0 1 47.969 19.875 Q 47.969 21.805 46.441 23.007 A 5.092 5.092 0 0 1 46.328 23.094 Q 44.828 24.208 42.479 24.304 A 11.026 11.026 0 0 1 42.031 24.312 A 10.233 10.233 0 0 1 40.13 24.146 Q 39.015 23.935 38.128 23.457 A 5.689 5.689 0 0 1 37.445 23.023 A 4.591 4.591 0 0 1 36.354 21.909 A 3.85 3.85 0 0 1 35.703 19.703 L 36.547 19.703 A 3.753 3.753 0 0 0 36.931 21.155 A 3.545 3.545 0 0 0 38.117 22.477 A 5.152 5.152 0 0 0 39.637 23.172 Q 40.322 23.367 41.139 23.434 A 10.93 10.93 0 0 0 42.031 23.469 Q 43.985 23.469 45.306 22.684 A 4.645 4.645 0 0 0 45.711 22.414 A 4.104 4.104 0 0 0 46.501 21.655 A 2.847 2.847 0 0 0 47.125 19.859 Q 47.125 16.781 41.875 15.672 A 21.356 21.356 0 0 1 40.334 15.288 Q 38.85 14.854 37.971 14.3 A 4.172 4.172 0 0 1 37.484 13.945 A 3.456 3.456 0 0 1 36.286 11.657 A 4.952 4.952 0 0 1 36.25 11.047 A 3.623 3.623 0 0 1 37.452 8.295 A 4.907 4.907 0 0 1 37.82 7.984 Q 39.391 6.781 41.906 6.781 A 9.324 9.324 0 0 1 43.732 6.95 Q 45.236 7.25 46.297 8.086 A 4.178 4.178 0 0 1 47.933 11.135 A 5.568 5.568 0 0 1 47.953 11.609 Z M 14.781 24 L 8.734 14.266 L 0.844 14.266 L 0.844 24 L 0 24 L 0 1.25 L 7.25 1.25 A 10.74 10.74 0 0 1 9.517 1.476 Q 10.984 1.792 12.099 2.554 A 6.396 6.396 0 0 1 12.695 3.016 A 5.801 5.801 0 0 1 14.664 6.852 A 8.225 8.225 0 0 1 14.719 7.812 A 6.181 6.181 0 0 1 13.273 11.883 Q 11.828 13.625 9.594 14.047 L 15.672 23.781 L 15.672 24 L 14.781 24 Z M 248.563 7.094 L 248.563 11.031 A 7.478 7.478 0 0 1 249.842 8.962 A 6.732 6.732 0 0 1 251 7.922 Q 252.609 6.781 254.563 6.781 A 7.605 7.605 0 0 1 256.107 6.928 Q 257.022 7.118 257.712 7.553 A 3.92 3.92 0 0 1 258.602 8.32 A 4.856 4.856 0 0 1 259.483 9.898 Q 259.734 10.614 259.846 11.496 A 12.154 12.154 0 0 1 259.938 12.969 L 259.938 24 L 259.094 24 L 259.094 12.938 A 10.904 10.904 0 0 0 259 11.52 Q 258.775 9.881 258.012 8.947 A 3.355 3.355 0 0 0 257.984 8.914 A 3.382 3.382 0 0 0 256.433 7.887 Q 255.61 7.609 254.516 7.609 A 5.258 5.258 0 0 0 250.727 9.164 A 7.547 7.547 0 0 0 248.871 12.106 A 9.61 9.61 0 0 0 248.562 13.172 L 248.563 24 L 247.719 24 L 247.719 7.094 L 248.563 7.094 Z M 199.609 24 L 198.75 24 L 198.75 21.266 A 5.518 5.518 0 0 1 196.563 23.492 A 5.834 5.834 0 0 1 194.99 24.094 Q 194.058 24.313 192.922 24.313 A 7.531 7.531 0 0 1 191.328 24.155 Q 190.313 23.935 189.56 23.409 A 4.175 4.175 0 0 1 188.773 22.695 A 5.282 5.282 0 0 1 187.798 20.927 Q 187.538 20.155 187.432 19.215 A 12.075 12.075 0 0 1 187.359 17.984 L 187.359 7.094 L 188.203 7.094 L 188.203 18.016 A 9.868 9.868 0 0 0 188.333 19.55 Q 188.467 20.34 188.739 20.974 A 4.294 4.294 0 0 0 189.422 22.086 Q 190.603 23.461 192.867 23.469 A 7.518 7.518 0 0 0 192.891 23.469 A 8.397 8.397 0 0 0 194.576 23.309 Q 195.625 23.094 196.444 22.59 A 4.979 4.979 0 0 0 196.828 22.328 A 4.779 4.779 0 0 0 198.434 20.14 A 6.723 6.723 0 0 0 198.75 18.984 L 198.75 7.094 L 199.609 7.094 L 199.609 24 Z M 107.203 18.875 L 108.047 18.875 Q 107.922 21.328 106.156 22.82 A 6.266 6.266 0 0 1 102.806 24.251 A 8.307 8.307 0 0 1 101.781 24.312 A 7.049 7.049 0 0 1 99.419 23.933 A 5.97 5.97 0 0 1 96.742 22.016 A 7.851 7.851 0 0 1 95.287 19.118 Q 94.978 18.003 94.901 16.683 A 15.437 15.437 0 0 1 94.875 15.781 L 94.875 15.219 A 12.834 12.834 0 0 1 95.114 12.669 Q 95.542 10.554 96.742 9.078 A 6.02 6.02 0 0 1 101.149 6.803 A 8.107 8.107 0 0 1 101.75 6.781 A 7.368 7.368 0 0 1 103.851 7.068 A 5.87 5.87 0 0 1 106.188 8.391 A 5.659 5.659 0 0 1 107.961 11.785 A 7.751 7.751 0 0 1 108.047 12.672 L 107.203 12.672 A 5.978 5.978 0 0 0 106.87 10.922 A 4.789 4.789 0 0 0 105.602 9.008 A 5.116 5.116 0 0 0 102.842 7.706 A 7.089 7.089 0 0 0 101.75 7.625 A 6.289 6.289 0 0 0 99.764 7.924 A 5.093 5.093 0 0 0 97.32 9.664 A 6.891 6.891 0 0 0 96.158 11.968 Q 95.719 13.431 95.719 15.328 L 95.719 15.875 A 12.564 12.564 0 0 0 95.901 18.086 Q 96.262 20.102 97.336 21.445 A 5.254 5.254 0 0 0 101.177 23.445 A 7.383 7.383 0 0 0 101.781 23.469 A 7.101 7.101 0 0 0 103.511 23.269 A 5.213 5.213 0 0 0 105.57 22.25 A 4.363 4.363 0 0 0 107.126 19.526 A 6.062 6.062 0 0 0 107.203 18.875 Z M 80.641 24 L 79.672 24 A 6.23 6.23 0 0 1 79.507 23.235 Q 79.38 22.425 79.362 21.287 A 24.287 24.287 0 0 1 79.359 20.906 Q 78.359 22.531 76.625 23.422 A 8.083 8.083 0 0 1 73.769 24.257 A 9.979 9.979 0 0 1 72.703 24.312 A 7.011 7.011 0 0 1 71.074 24.133 A 4.86 4.86 0 0 1 68.93 23.039 A 4.188 4.188 0 0 1 67.506 19.974 A 5.659 5.659 0 0 1 67.5 19.719 A 4.142 4.142 0 0 1 68.941 16.5 A 5.827 5.827 0 0 1 69.602 15.992 A 7.824 7.824 0 0 1 71.876 14.982 Q 72.88 14.705 74.069 14.611 A 15.963 15.963 0 0 1 75.187 14.562 L 79.359 14.563 L 79.359 12.094 A 5.414 5.414 0 0 0 79.194 10.717 A 3.761 3.761 0 0 0 78.023 8.797 A 4.351 4.351 0 0 0 76.43 7.927 Q 75.774 7.722 74.981 7.656 A 9.413 9.413 0 0 0 74.203 7.625 A 7.43 7.43 0 0 0 72.404 7.832 A 5.54 5.54 0 0 0 70.344 8.812 A 4.371 4.371 0 0 0 69.416 9.76 A 3.38 3.38 0 0 0 68.797 11.75 L 67.953 11.719 A 4.176 4.176 0 0 1 69.286 8.641 A 6.038 6.038 0 0 1 69.766 8.219 Q 71.578 6.781 74.203 6.781 A 8.862 8.862 0 0 1 75.987 6.95 Q 77.077 7.174 77.922 7.695 A 5.071 5.071 0 0 1 78.547 8.148 A 4.575 4.575 0 0 1 80.089 10.862 A 6.698 6.698 0 0 1 80.203 12 L 80.203 20.078 Q 80.203 22.731 80.601 23.763 A 2.343 2.343 0 0 0 80.641 23.859 L 80.641 24 Z M 217.859 15.438 L 217.859 15.703 Q 217.859 18.673 216.898 20.726 A 7.543 7.543 0 0 1 216.156 21.984 Q 214.522 24.219 211.75 24.309 A 7.229 7.229 0 0 1 211.516 24.312 A 8.077 8.077 0 0 1 209.593 24.092 A 6.65 6.65 0 0 1 208.094 23.531 A 5.864 5.864 0 0 1 205.75 21.375 L 205.75 30.5 L 204.906 30.5 L 204.906 7.094 L 205.75 7.094 L 205.75 10.109 Q 206.625 8.5 208.109 7.641 A 6.411 6.411 0 0 1 210.79 6.811 A 7.851 7.851 0 0 1 211.484 6.781 A 6.212 6.212 0 0 1 213.688 7.156 A 5.455 5.455 0 0 1 216.156 9.055 A 7.697 7.697 0 0 1 217.335 11.444 Q 217.859 13.158 217.859 15.438 Z M 19.25 15.922 L 19.25 15.219 A 10.19 10.19 0 0 1 19.691 12.189 A 9.236 9.236 0 0 1 20.187 10.922 A 7.963 7.963 0 0 1 21.504 8.954 A 6.966 6.966 0 0 1 22.766 7.875 A 6.321 6.321 0 0 1 26.344 6.781 A 6.465 6.465 0 0 1 28.695 7.195 A 5.851 5.851 0 0 1 30.969 8.797 Q 32.766 10.813 32.766 14.094 L 32.766 14.984 L 20.094 14.984 L 20.094 15.906 A 8.516 8.516 0 0 0 20.961 19.727 Q 21.828 21.484 23.352 22.484 A 5.905 5.905 0 0 0 26.656 23.484 A 8.505 8.505 0 0 0 27.956 23.39 Q 28.677 23.279 29.279 23.035 A 4.922 4.922 0 0 0 29.555 22.914 A 5.585 5.585 0 0 0 31.132 21.775 A 6.98 6.98 0 0 0 31.672 21.156 L 32.266 21.578 A 6.128 6.128 0 0 1 27.774 24.246 A 9.048 9.048 0 0 1 26.656 24.313 A 6.802 6.802 0 0 1 22.898 23.211 A 7.53 7.53 0 0 1 20.28 20.307 A 8.9 8.9 0 0 1 20.219 20.187 A 9.132 9.132 0 0 1 19.274 16.644 A 10.889 10.889 0 0 1 19.25 15.922 Z M 51.297 15.922 L 51.297 15.219 A 10.19 10.19 0 0 1 51.737 12.189 A 9.236 9.236 0 0 1 52.234 10.922 A 7.963 7.963 0 0 1 53.551 8.954 A 6.966 6.966 0 0 1 54.813 7.875 A 6.321 6.321 0 0 1 58.391 6.781 A 6.465 6.465 0 0 1 60.742 7.195 A 5.851 5.851 0 0 1 63.016 8.797 Q 64.813 10.813 64.813 14.094 L 64.813 14.984 L 52.141 14.984 L 52.141 15.906 A 8.516 8.516 0 0 0 53.008 19.727 Q 53.875 21.484 55.398 22.484 A 5.905 5.905 0 0 0 58.703 23.484 A 8.505 8.505 0 0 0 60.003 23.39 Q 60.723 23.279 61.326 23.035 A 4.922 4.922 0 0 0 61.602 22.914 A 5.585 5.585 0 0 0 63.179 21.775 A 6.98 6.98 0 0 0 63.719 21.156 L 64.313 21.578 A 6.128 6.128 0 0 1 59.821 24.246 A 9.048 9.048 0 0 1 58.703 24.313 A 6.802 6.802 0 0 1 54.945 23.211 A 7.53 7.53 0 0 1 52.327 20.307 A 8.9 8.9 0 0 1 52.266 20.187 A 9.132 9.132 0 0 1 51.321 16.644 A 10.889 10.889 0 0 1 51.297 15.922 Z M 93.188 6.953 L 93.094 7.703 L 92 7.609 Q 89.844 7.609 88.391 9.008 A 5.982 5.982 0 0 0 87.058 10.966 Q 86.679 11.841 86.484 12.922 L 86.484 24 L 85.641 24 L 85.641 7.094 L 86.484 7.094 L 86.484 10.609 A 6.728 6.728 0 0 1 87.459 8.877 A 5.833 5.833 0 0 1 88.547 7.813 Q 89.922 6.781 92 6.781 Q 92.508 6.781 92.882 6.864 A 2.194 2.194 0 0 1 93.188 6.953 Z M 166.969 6.953 L 166.875 7.703 L 165.781 7.609 Q 163.625 7.609 162.172 9.008 A 5.982 5.982 0 0 0 160.84 10.966 Q 160.46 11.841 160.266 12.922 L 160.266 24 L 159.422 24 L 159.422 7.094 L 160.266 7.094 L 160.266 10.609 A 6.728 6.728 0 0 1 161.24 8.877 A 5.833 5.833 0 0 1 162.328 7.813 Q 163.703 6.781 165.781 6.781 Q 166.289 6.781 166.663 6.864 A 2.194 2.194 0 0 1 166.969 6.953 Z M 168.531 15.969 L 168.531 15.219 A 10.838 10.838 0 0 1 168.817 12.683 A 9.021 9.021 0 0 1 169.461 10.867 A 7.414 7.414 0 0 1 171.033 8.68 A 6.925 6.925 0 0 1 172.086 7.859 A 6.938 6.938 0 0 1 175.656 6.785 A 8.339 8.339 0 0 1 175.922 6.781 A 7.387 7.387 0 0 1 178.465 7.211 A 6.827 6.827 0 0 1 179.734 7.828 A 6.973 6.973 0 0 1 182.179 10.437 A 8.463 8.463 0 0 1 182.367 10.797 A 9.382 9.382 0 0 1 183.262 13.95 A 11.559 11.559 0 0 1 183.328 15.125 L 183.328 15.875 A 11.05 11.05 0 0 1 183.068 18.319 A 9.013 9.013 0 0 1 182.406 20.234 A 7.326 7.326 0 0 1 180.773 22.478 A 6.929 6.929 0 0 1 179.789 23.234 A 6.938 6.938 0 0 1 176.219 24.308 A 8.339 8.339 0 0 1 175.953 24.312 Q 173.813 24.313 172.117 23.25 A 7.058 7.058 0 0 1 169.605 20.509 A 8.451 8.451 0 0 1 169.484 20.273 A 9.372 9.372 0 0 1 168.597 17.134 A 11.516 11.516 0 0 1 168.531 15.969 Z M 228.828 15.969 L 228.828 15.219 A 10.838 10.838 0 0 1 229.114 12.683 A 9.021 9.021 0 0 1 229.758 10.867 A 7.414 7.414 0 0 1 231.33 8.68 A 6.925 6.925 0 0 1 232.383 7.859 A 6.938 6.938 0 0 1 235.953 6.785 A 8.339 8.339 0 0 1 236.219 6.781 A 7.387 7.387 0 0 1 238.762 7.211 A 6.827 6.827 0 0 1 240.031 7.828 A 6.973 6.973 0 0 1 242.476 10.437 A 8.463 8.463 0 0 1 242.664 10.797 A 9.382 9.382 0 0 1 243.559 13.95 A 11.559 11.559 0 0 1 243.625 15.125 L 243.625 15.875 A 11.05 11.05 0 0 1 243.365 18.319 A 9.013 9.013 0 0 1 242.703 20.234 A 7.326 7.326 0 0 1 241.07 22.478 A 6.929 6.929 0 0 1 240.086 23.234 A 6.938 6.938 0 0 1 236.516 24.308 A 8.339 8.339 0 0 1 236.25 24.312 Q 234.109 24.313 232.414 23.25 A 7.058 7.058 0 0 1 229.901 20.509 A 8.451 8.451 0 0 1 229.781 20.273 A 9.372 9.372 0 0 1 228.894 17.134 A 11.516 11.516 0 0 1 228.828 15.969 Z M 169.375 15.375 L 169.375 15.875 Q 169.375 17.984 170.211 19.742 A 6.999 6.999 0 0 0 171.435 21.557 A 6.231 6.231 0 0 0 172.539 22.484 A 5.978 5.978 0 0 0 175.597 23.46 A 7.278 7.278 0 0 0 175.953 23.469 A 6.249 6.249 0 0 0 178.428 22.992 A 5.947 5.947 0 0 0 180.664 21.297 Q 182.484 19.125 182.484 15.703 L 182.484 15.219 A 8.946 8.946 0 0 0 181.938 12.077 A 8.473 8.473 0 0 0 181.641 11.375 A 7.123 7.123 0 0 0 180.42 9.561 A 6.306 6.306 0 0 0 179.305 8.617 Q 177.813 7.625 175.922 7.625 A 6.156 6.156 0 0 0 173.371 8.142 A 6.008 6.008 0 0 0 171.203 9.828 A 7.829 7.829 0 0 0 169.512 13.632 A 10.71 10.71 0 0 0 169.375 15.375 Z M 229.672 15.375 L 229.672 15.875 Q 229.672 17.984 230.508 19.742 A 6.999 6.999 0 0 0 231.732 21.557 A 6.231 6.231 0 0 0 232.836 22.484 A 5.978 5.978 0 0 0 235.893 23.46 A 7.278 7.278 0 0 0 236.25 23.469 A 6.249 6.249 0 0 0 238.725 22.992 A 5.947 5.947 0 0 0 240.961 21.297 Q 242.781 19.125 242.781 15.703 L 242.781 15.219 A 8.946 8.946 0 0 0 242.235 12.077 A 8.473 8.473 0 0 0 241.938 11.375 A 7.123 7.123 0 0 0 240.717 9.561 A 6.306 6.306 0 0 0 239.602 8.617 Q 238.109 7.625 236.219 7.625 A 6.156 6.156 0 0 0 233.668 8.142 A 6.008 6.008 0 0 0 231.5 9.828 A 7.829 7.829 0 0 0 229.809 13.632 A 10.71 10.71 0 0 0 229.672 15.375 Z M 205.75 11.891 L 205.75 19.797 A 5.569 5.569 0 0 0 206.897 21.676 A 5.301 5.301 0 0 0 207.898 22.508 A 5.905 5.905 0 0 0 210.017 23.334 A 8.111 8.111 0 0 0 211.531 23.469 A 5.2 5.2 0 0 0 213.415 23.141 Q 214.698 22.647 215.563 21.406 A 6.892 6.892 0 0 0 216.464 19.51 Q 217 17.797 217 15.375 Q 217 12.908 216.336 11.169 A 6.773 6.773 0 0 0 215.555 9.68 A 4.585 4.585 0 0 0 212.249 7.67 A 6.028 6.028 0 0 0 211.5 7.625 A 6.814 6.814 0 0 0 209.706 7.851 A 5.391 5.391 0 0 0 207.891 8.727 Q 206.406 9.828 205.75 11.891 Z M 0.844 2.094 L 0.844 13.422 L 8.016 13.422 A 7.039 7.039 0 0 0 9.913 13.179 A 5.322 5.322 0 0 0 12.258 11.828 A 5.359 5.359 0 0 0 13.871 8.038 A 7.084 7.084 0 0 0 13.875 7.813 A 6.355 6.355 0 0 0 13.623 5.979 A 4.89 4.89 0 0 0 12.086 3.625 A 6.027 6.027 0 0 0 9.739 2.41 Q 8.599 2.094 7.188 2.094 L 0.844 2.094 Z M 79.359 19.438 L 79.359 15.422 L 75.453 15.422 A 14.661 14.661 0 0 0 73.366 15.561 Q 72.299 15.714 71.434 16.039 A 6.129 6.129 0 0 0 69.906 16.859 A 4.345 4.345 0 0 0 68.985 17.776 A 3.329 3.329 0 0 0 68.344 19.781 A 3.319 3.319 0 0 0 69.411 22.252 A 4.434 4.434 0 0 0 69.578 22.406 A 4.316 4.316 0 0 0 71.826 23.421 A 5.881 5.881 0 0 0 72.703 23.484 A 8.901 8.901 0 0 0 74.719 23.266 A 6.812 6.812 0 0 0 76.789 22.422 Q 78.5 21.359 79.359 19.438 Z M 20.141 14.141 L 31.922 14.141 L 31.922 13.938 A 7.139 7.139 0 0 0 31.195 10.742 Q 30.469 9.266 29.195 8.445 A 5.153 5.153 0 0 0 26.344 7.625 A 5.493 5.493 0 0 0 22.319 9.293 A 6.861 6.861 0 0 0 22.156 9.461 A 7.444 7.444 0 0 0 20.348 12.904 A 9.772 9.772 0 0 0 20.141 14.141 Z M 52.188 14.141 L 63.969 14.141 L 63.969 13.938 A 7.139 7.139 0 0 0 63.242 10.742 Q 62.516 9.266 61.242 8.445 A 5.153 5.153 0 0 0 58.391 7.625 A 5.493 5.493 0 0 0 54.366 9.293 A 6.861 6.861 0 0 0 54.203 9.461 A 7.444 7.444 0 0 0 52.395 12.904 A 9.772 9.772 0 0 0 52.187 14.141 Z" vector-effect="non-scaling-stroke"/></g></svg>